<?xml version="1.0" encoding="utf-8"?>
<!-- Generator: Adobe Illustrator 22.0.1, SVG Export Plug-In . SVG Version: 6.00 Build 0)  -->
<svg version="1.1" xmlns="http://www.w3.org/2000/svg" xmlns:xlink="http://www.w3.org/1999/xlink" x="0px" y="0px" width="612px"
	 height="251.9px" viewBox="0 0 612 251.9" style="enable-background:new 0 0 612 251.9;" xml:space="preserve">
<style type="text/css">
	.st0{fill:#1A1A1A;}
	.st1{fill:#808080;}
	.st2{fill:#DCDCDC;}
	.st3{fill:#DDDDDD;}
	.st4{fill:#FE0016;}
	.st5{fill:#FFFFFF;}
	.st6{fill:#FF0000;}
</style>
<g id="background">
	<g id="rect11983">
		<rect x="16" y="42" class="st0" width="581.8" height="195.3"/>
	</g>
	<g id="rect12203">
		<path class="st1" d="M206,35h153.3c5.4,0,9.7,4.3,9.7,9.7v10.6c0,5.4-4.3,9.7-9.7,9.7H206c-5.4,0-9.7-4.3-9.7-9.7V44.7
			C196.3,39.4,200.6,35,206,35z"/>
	</g>
	<g id="rect13178">
		<path class="st1" d="M206,218h153.3c5.4,0,9.7,4.3,9.7,9.7v10.6c0,5.4-4.3,9.7-9.7,9.7H206c-5.4,0-9.7-4.3-9.7-9.7v-10.6
			C196.3,222.4,200.6,218,206,218z"/>
	</g>
	<g id="rect11976">
		<path class="st2" d="M8.2,0C3.6,0,0,3.6,0,8.2v235.6c0,4.5,3.6,8.2,8.2,8.2H604c4.5,0,8-3.6,8-8.2V8.2c0-4.5-3.4-8.2-8-8.2H8.2
			L8.2,0z M15.9,42h582v195.3h-582V42L15.9,42z"/>
	</g>
	<g id="rect11986">
		<path class="st1" d="M206,73.6h153.3c5.4,0,9.7,4.3,9.7,9.7v10.6c0,5.4-4.3,9.7-9.7,9.7H206c-5.4,0-9.7-4.3-9.7-9.7V83.3
			C196.3,78,200.6,73.6,206,73.6z"/>
	</g>
	<g id="rect12205">
		<path class="st1" d="M206,112.3h153.3c5.4,0,9.7,4.3,9.7,9.7v10.6c0,5.4-4.3,9.7-9.7,9.7H206c-5.4,0-9.7-4.3-9.7-9.7V122
			C196.3,116.6,200.6,112.3,206,112.3z"/>
	</g>
	<g id="rect12199">
		<path class="st3" d="M207.1,150.4h151.1c6,0,10.8,4.8,10.8,10.8v35.3c0,6-4.8,10.8-10.8,10.8H207.1c-6,0-10.8-4.8-10.8-10.8v-35.3
			C196.3,155.3,201.1,150.4,207.1,150.4z"/>
	</g>
	<g id="rect12207">
		<path class="st1" d="M353.1,203.3H212.2c-5.3,0-9.6-4.3-9.6-9.6v-29c0-5.3,4.3-9.6,9.6-9.6h140.9c5.3,0,9.6,4.3,9.6,9.6v29
			C362.7,199,358.4,203.3,353.1,203.3z M212.2,156.6c-4.5,0-8.1,3.6-8.1,8.1v29c0,4.5,3.6,8.1,8.1,8.1h140.9c4.5,0,8.1-3.6,8.1-8.1
			v-29c0-4.5-3.6-8.1-8.1-8.1H212.2z"/>
	</g>
	<g>
		<g>
			<path class="st4" d="M396.7,84.4V67.1h8.1c2.5,0,4.6,0.8,6.4,2.5c1.8,1.7,2.6,3.7,2.6,6.1s-0.9,4.4-2.6,6.1
				c-1.8,1.7-3.9,2.5-6.4,2.5H396.7z M402.1,69.9v11.7h2.7c1,0,1.9-0.6,2.6-1.7s1.1-2.5,1.1-4.2s-0.4-3-1.1-4.2
				c-0.7-1.1-1.6-1.7-2.6-1.7H402.1z"/>
		</g>
		<g>
			<path class="st4" d="M415.2,67.1h5.4l7.4,12.1V67.1h5.3v17.3H428l-7.5-12.1v12.1h-5.4V67.1z"/>
		</g>
		<g>
			<path class="st4" d="M441.4,80.4l-1.3,3.9h-5.4l6.3-17.3h5.4l6.3,17.3h-5.4l-1.3-3.9H441.4z M445.3,77.7l-1.5-4.7l-1.5,4.7H445.3
				z"/>
		</g>
		<g>
			<path class="st4" d="M406.2,108.7l-4.2-6.8V114h-5.4V96.7h5.4l4.1,6.7l4.1-6.7h5.4V114h-5.4V102L406.2,108.7z"/>
		</g>
		<g>
			<path class="st4" d="M417.2,96.1h5.4v3.6h-5.4V96.1z M417.2,102.1h5.4V114h-5.4V102.1z"/>
		</g>
		<g>
			<path class="st4" d="M433.6,109.5h5.2c-0.1,0.3-0.2,0.6-0.3,0.8c-0.4,0.8-0.9,1.5-1.6,2c-0.7,0.6-1.5,1-2.4,1.4s-1.9,0.5-2.9,0.5
				c-1,0-2-0.2-2.9-0.5s-1.7-0.8-2.4-1.4c-0.7-0.6-1.2-1.2-1.6-2c-0.4-0.8-0.6-1.6-0.6-2.5c0-0.9,0.2-1.7,0.6-2.5
				c0.4-0.8,0.9-1.4,1.6-2c0.7-0.6,1.5-1,2.4-1.4c0.9-0.3,1.9-0.5,2.9-0.5c1,0,2,0.2,2.9,0.5c0.9,0.3,1.7,0.8,2.4,1.4
				c0.7,0.6,1.2,1.2,1.6,2c0.1,0.2,0.2,0.5,0.3,0.7h-5.1v-0.6c0-0.9-0.2-1.6-0.7-2c-0.4-0.4-0.9-0.6-1.4-0.6c-0.5,0-1,0.2-1.4,0.6
				s-0.7,1-0.7,2v4.8c0,0.9,0.2,1.5,0.7,1.9c0.4,0.4,0.9,0.6,1.4,0.6c0.5,0,1-0.2,1.4-0.6c0.4-0.4,0.7-1.1,0.7-1.9V109.5z"/>
		</g>
		<g>
			<path class="st4" d="M450,104.6c-0.5-0.5-1.1-0.7-1.8-0.7c-0.7,0-1.3,0.2-1.8,0.7c-0.5,0.5-0.7,1-0.7,1.5v7.9h-5.4v-12h5.4v1.2
				c0.5-0.5,1.2-0.9,1.9-1.2c0.7-0.3,1.6-0.5,2.4-0.5h0.2c0.5,0,1,0.1,1.6,0.2c0.7,0.2,1.4,0.5,2,1c0.4,0.3,0.7,0.6,1.1,1l-4.2,2
				C450.5,105.3,450.3,105,450,104.6z"/>
		</g>
		<g>
			<path class="st4" d="M466.6,102c0.9,0.3,1.7,0.8,2.4,1.4c0.7,0.6,1.2,1.2,1.6,2c0.4,0.8,0.6,1.6,0.6,2.5c0,0.9-0.2,1.7-0.6,2.5
				c-0.4,0.8-0.9,1.4-1.6,2c-0.7,0.6-1.5,1-2.4,1.4s-1.9,0.5-2.9,0.5c-1,0-2-0.2-2.9-0.5c-0.9-0.3-1.7-0.8-2.4-1.4
				c-0.7-0.6-1.2-1.2-1.6-2c-0.4-0.8-0.6-1.6-0.6-2.5c0-0.9,0.2-1.7,0.6-2.5c0.4-0.8,0.9-1.4,1.6-2c0.7-0.6,1.5-1,2.4-1.4
				c0.9-0.3,1.9-0.5,2.9-0.5C464.7,101.5,465.7,101.7,466.6,102z M465.8,105.5c0-0.9-0.2-1.6-0.7-2s-0.9-0.6-1.4-0.6
				c-0.5,0-1,0.2-1.4,0.6s-0.7,1-0.7,2v4.8c0,0.9,0.2,1.5,0.7,1.9c0.4,0.4,0.9,0.6,1.4,0.6c0.5,0,1-0.2,1.4-0.6
				c0.4-0.4,0.7-1.1,0.7-1.9V105.5z"/>
		</g>
		<g>
			<path class="st4" d="M481.9,105.1c0-1.4-0.7-2.1-2.1-2.1c-1.4,0-2.1,0.6-2.1,1.7c0,1.1,1.6,1.8,4.8,2.1c3.2,0.3,4.8,1.5,4.8,3.7
				c0,2.3-2.4,3.4-7.2,3.4c-4.8,0-7.3-1.4-7.4-4.2h5.1c0,1.9,0.7,2.8,2.1,2.8c1.4,0,2.1-0.6,2.1-1.8c0-1.3-1.6-2.1-4.7-2.3
				s-4.7-1.5-4.7-3.6s2.4-3.2,7.3-3.2c4.1,0,6.3,1.1,6.6,3.4H481.9z"/>
		</g>
		<g>
			<path class="st4" d="M498.3,109.5h5.2c-0.1,0.3-0.2,0.6-0.3,0.8c-0.4,0.8-0.9,1.5-1.6,2c-0.7,0.6-1.5,1-2.4,1.4s-1.9,0.5-2.9,0.5
				c-1,0-2-0.2-2.9-0.5s-1.7-0.8-2.4-1.4c-0.7-0.6-1.2-1.2-1.6-2c-0.4-0.8-0.6-1.6-0.6-2.5c0-0.9,0.2-1.7,0.6-2.5
				c0.4-0.8,0.9-1.4,1.6-2c0.7-0.6,1.5-1,2.4-1.4c0.9-0.3,1.9-0.5,2.9-0.5c1,0,2,0.2,2.9,0.5c0.9,0.3,1.7,0.8,2.4,1.4
				c0.7,0.6,1.2,1.2,1.6,2c0.1,0.2,0.2,0.5,0.3,0.7h-5.1v-0.6c0-0.9-0.2-1.6-0.7-2c-0.4-0.4-0.9-0.6-1.4-0.6c-0.5,0-1,0.2-1.4,0.6
				s-0.7,1-0.7,2v4.8c0,0.9,0.2,1.5,0.7,1.9c0.4,0.4,0.9,0.6,1.4,0.6c0.5,0,1-0.2,1.4-0.6c0.4-0.4,0.7-1.1,0.7-1.9V109.5z"/>
		</g>
		<g>
			<path class="st4" d="M515.3,102c0.9,0.3,1.7,0.8,2.4,1.4c0.7,0.6,1.2,1.2,1.6,2c0.4,0.8,0.6,1.6,0.6,2.5c0,0.9-0.2,1.7-0.6,2.5
				c-0.4,0.8-0.9,1.4-1.6,2c-0.7,0.6-1.5,1-2.4,1.4s-1.9,0.5-2.9,0.5c-1,0-2-0.2-2.9-0.5c-0.9-0.3-1.7-0.8-2.4-1.4
				c-0.7-0.6-1.2-1.2-1.6-2c-0.4-0.8-0.6-1.6-0.6-2.5c0-0.9,0.2-1.7,0.6-2.5c0.4-0.8,0.9-1.4,1.6-2c0.7-0.6,1.5-1,2.4-1.4
				c0.9-0.3,1.9-0.5,2.9-0.5C513.5,101.5,514.4,101.7,515.3,102z M514.5,105.5c0-0.9-0.2-1.6-0.7-2s-0.9-0.6-1.4-0.6
				c-0.5,0-1,0.2-1.4,0.6s-0.7,1-0.7,2v4.8c0,0.9,0.2,1.5,0.7,1.9c0.4,0.4,0.9,0.6,1.4,0.6c0.5,0,1-0.2,1.4-0.6
				c0.4-0.4,0.7-1.1,0.7-1.9V105.5z"/>
		</g>
		<g>
			<path class="st4" d="M526.3,101.7v0.9c0.4-0.2,0.9-0.5,1.4-0.7c0.5-0.2,1-0.3,1.7-0.4c0.2,0,0.5,0,0.7,0c0.7,0,1.4,0.1,2.1,0.4
				c0.9,0.4,1.6,0.9,2.2,1.5c0.6,0.6,1.1,1.3,1.4,2.1c0.4,0.8,0.5,1.6,0.5,2.4c0,2.1-0.6,3.7-1.9,4.8c-1.3,1.1-2.7,1.7-4.2,1.7
				c-1.5,0-2.8-0.3-3.9-1v5.3h-5.4v-16.9H526.3z M526.3,110.1c0,0.9,0.2,1.6,0.7,1.9c0.5,0.3,0.9,0.5,1.4,0.5c0.4,0,0.9-0.2,1.4-0.5
				c0.5-0.3,0.7-0.9,0.7-1.9v-4.3c0-0.9-0.2-1.5-0.7-1.8c-0.5-0.3-1-0.5-1.4-0.5c-0.4,0-0.9,0.2-1.4,0.5c-0.5,0.3-0.7,0.9-0.7,1.8
				V110.1z"/>
		</g>
		<g>
			<path class="st4" d="M552,109.6c-0.2,0.7-0.6,1.3-1,1.8c-0.5,0.6-1,1.1-1.6,1.5c-0.6,0.4-1.3,0.7-2.1,0.9s-1.6,0.3-2.4,0.3
				c-1,0-2-0.2-2.9-0.5c-0.9-0.3-1.7-0.8-2.4-1.3c-0.7-0.6-1.2-1.3-1.6-2s-0.6-1.6-0.6-2.4c0-0.9,0.2-1.7,0.6-2.4s0.9-1.4,1.6-2
				c0.7-0.6,1.5-1,2.4-1.3c0.9-0.3,1.9-0.5,2.9-0.5c1,0,2,0.2,2.9,0.5c0.9,0.3,1.7,0.8,2.4,1.4c0.7,0.6,1.2,1.3,1.6,2
				c0.4,0.8,0.6,1.6,0.6,2.4h-9.6v2.3c0,1,0.3,1.7,0.8,2s1,0.5,1.4,0.5c0.4,0,0.8-0.2,1.3-0.5c0.5-0.3,0.8-1,0.8-2v-0.7H552z
				 M547,106.2c0-0.5,0-0.9-0.1-1.3s-0.1-0.7-0.3-0.9c-0.2-0.3-0.5-0.6-0.8-0.8c-0.3-0.2-0.6-0.3-1-0.3c-0.3,0-0.7,0.1-1,0.3
				s-0.6,0.4-0.8,0.8c-0.2,0.3-0.3,0.6-0.3,0.9s-0.1,0.8-0.1,1.3H547z"/>
		</g>
	</g>
	<g id="rect2235">
		<path d="M85.5,80c-2.7,0-4.7,2.2-4.7,4.9v33.7H47.1c-2.7,0-4.9,2.2-4.9,4.9v27.1c0,2.7,2.2,4.9,4.9,4.9h33.7v33.7
			c0,2.7,2,4.7,4.7,4.7h27.3c2.7,0,4.7-2,4.7-4.7v-33.7h33.7c2.7,0,4.9-2.2,4.9-4.9v-27.1c0-2.7-2.2-4.9-4.9-4.9h-33.7V84.9
			c0-2.7-2-4.9-4.7-4.9H85.5z"/>
	</g>
	<g id="bg">
		<path d="M112.7,137.1c0,7.3-5.9,13.1-13.1,13.2c-7.3,0-13.1-5.9-13.2-13.1c0,0,0,0,0,0c0-7.3,5.9-13.1,13.1-13.2
			C106.8,123.9,112.6,129.8,112.7,137.1C112.7,137.1,112.7,137.1,112.7,137.1z"/>
		<path class="st5" d="M99.5,151.1c-7.7,0-14-6.3-14-14c0-7.7,6.3-14,14-14c0,0,0,0,0,0c3.7,0,7.2,1.5,9.9,4.1
			c2.6,2.6,4.1,6.1,4.1,9.9v0C113.5,144.8,107.2,151.1,99.5,151.1C99.5,151.1,99.5,151.1,99.5,151.1z M99.5,124.7
			C99.5,124.7,99.5,124.7,99.5,124.7c-6.8,0-12.3,5.5-12.3,12.3c0,6.8,5.5,12.3,12.3,12.3c0,0,0,0,0,0c6.8,0,12.3-5.5,12.3-12.3v0
			c0-3.3-1.3-6.4-3.6-8.7C105.9,126,102.8,124.7,99.5,124.7z"/>
	</g>
</g>
<g id="controls-other">
	<g id="reset_1_">
		<g id="rect4247_1_">
			<g>
				<path d="M225.7,170.4h29.4c5.3,0,9.6,4.3,9.6,9.6l0,0c0,5.3-4.3,9.6-9.6,9.6h-29.4c-5.3,0-9.6-4.3-9.6-9.6l0,0
					C216.1,174.7,220.4,170.4,225.7,170.4z"/>
			</g>
		</g>
		<g id="rect3789_1_">
			<g>
				<path class="st0" d="M228.2,172.2h24.4c5.3,0,9.6,3.4,9.6,7.7l0,0c0,4.3-4.3,7.7-9.6,7.7h-24.4c-5.3,0-9.6-3.4-9.6-7.7l0,0
					C218.6,175.7,222.9,172.2,228.2,172.2z"/>
			</g>
		</g>
		<g>
			<g>
				<path class="st6" d="M209.7,133v-9.7h8.4c0.6,0,1.2,0.2,1.6,0.6c0.5,0.4,0.7,0.9,0.7,1.5v1.9c0,0.5-0.3,0.8-0.7,0.9
					c0.4,0,0.6,0.3,0.7,0.9v4h-2.6v-3c0-0.2-0.1-0.3-0.2-0.4c-0.1-0.1-0.3-0.2-0.5-0.2h-4c-0.2,0-0.4,0.1-0.5,0.2
					c-0.1,0.1-0.2,0.3-0.2,0.4v3H209.7z M217,126.9c0.2,0,0.4-0.1,0.5-0.2c0.1-0.1,0.2-0.3,0.2-0.5c0-0.2-0.1-0.3-0.2-0.4
					c-0.1-0.1-0.3-0.2-0.5-0.2h-4c-0.2,0-0.4,0.1-0.5,0.2c-0.1,0.1-0.2,0.3-0.2,0.4c0,0.2,0.1,0.3,0.2,0.5c0.1,0.1,0.3,0.2,0.5,0.2
					H217z"/>
			</g>
			<g>
				<path class="st6" d="M224.1,133c-0.7,0-1.2-0.2-1.7-0.6c-0.4-0.4-0.7-0.9-0.7-1.5v-7.6h10.7v2.4h-7.4c-0.2,0-0.4,0.1-0.5,0.2
					c-0.1,0.1-0.2,0.3-0.2,0.4c0,0.2,0.1,0.3,0.2,0.5c0.1,0.1,0.3,0.2,0.5,0.2h7.4v2.4h-7.4c-0.2,0-0.4,0.1-0.5,0.2
					c-0.1,0.1-0.2,0.3-0.2,0.4c0,0.2,0.1,0.3,0.2,0.5c0.1,0.1,0.3,0.2,0.5,0.2h7.4v2.4H224.1z"/>
			</g>
			<g>
				<path class="st6" d="M233.8,133v-2.4h7.4c0.2,0,0.4-0.1,0.5-0.2c0.1-0.1,0.2-0.3,0.2-0.5c0-0.2-0.1-0.3-0.2-0.4
					c-0.1-0.1-0.3-0.2-0.5-0.2h-5c-0.7,0-1.2-0.2-1.7-0.6c-0.4-0.4-0.7-0.9-0.7-1.5v-1.8c0-0.6,0.2-1.1,0.7-1.5
					c0.5-0.4,1-0.6,1.7-0.6h8.4v2.4h-7.4c-0.2,0-0.4,0.1-0.5,0.2c-0.1,0.1-0.2,0.3-0.2,0.4c0,0.2,0.1,0.3,0.2,0.5
					c0.1,0.1,0.3,0.2,0.5,0.2h5c0.6,0,1.2,0.2,1.6,0.6c0.5,0.4,0.7,0.9,0.7,1.5v1.8c0,0.6-0.2,1.1-0.7,1.5c-0.5,0.4-1,0.6-1.6,0.6
					H233.8z"/>
			</g>
			<g>
				<path class="st6" d="M248.2,133c-0.7,0-1.2-0.2-1.7-0.6c-0.4-0.4-0.7-0.9-0.7-1.5v-7.6h10.7v2.4h-7.4c-0.2,0-0.4,0.1-0.5,0.2
					c-0.1,0.1-0.2,0.3-0.2,0.4c0,0.2,0.1,0.3,0.2,0.5c0.1,0.1,0.3,0.2,0.5,0.2h7.4v2.4h-7.4c-0.2,0-0.4,0.1-0.5,0.2
					c-0.1,0.1-0.2,0.3-0.2,0.4c0,0.2,0.1,0.3,0.2,0.5c0.1,0.1,0.3,0.2,0.5,0.2h7.4v2.4H248.2z"/>
			</g>
			<g>
				<path class="st6" d="M262,133v-6.7c0-0.2-0.1-0.3-0.2-0.4c-0.1-0.1-0.3-0.2-0.5-0.2h-3.3v-2.4h10.7v2.4h-3.3
					c-0.2,0-0.4,0.1-0.5,0.2c-0.1,0.1-0.2,0.3-0.2,0.4v6.7H262z"/>
			</g>
		</g>
	</g>
	<g id="export_1_">
		<g id="rect5332_1_">
			<g>
				<path d="M309.7,170.4h29.4c5.3,0,9.6,4.3,9.6,9.6l0,0c0,5.3-4.3,9.6-9.6,9.6h-29.4c-5.3,0-9.6-4.3-9.6-9.6l0,0
					C300.1,174.7,304.4,170.4,309.7,170.4z"/>
			</g>
		</g>
		<g id="rect3791_1_">
			<g>
				<path class="st0" d="M312.2,172.2h24.4c5.3,0,9.6,3.4,9.6,7.7l0,0c0,4.3-4.3,7.7-9.6,7.7h-24.4c-5.3,0-9.6-3.4-9.6-7.7l0,0
					C302.6,175.7,306.9,172.2,312.2,172.2z"/>
			</g>
		</g>
		<g>
			<g>
				<path class="st6" d="M292,133c-0.7,0-1.2-0.2-1.7-0.6c-0.4-0.4-0.7-0.9-0.7-1.5v-7.6h10.7v2.4H293c-0.2,0-0.4,0.1-0.5,0.2
					c-0.1,0.1-0.2,0.3-0.2,0.4c0,0.2,0.1,0.3,0.2,0.5c0.1,0.1,0.3,0.2,0.5,0.2h7.4v2.4H293c-0.2,0-0.4,0.1-0.5,0.2
					c-0.1,0.1-0.2,0.3-0.2,0.4c0,0.2,0.1,0.3,0.2,0.5c0.1,0.1,0.3,0.2,0.5,0.2h7.4v2.4H292z"/>
			</g>
			<g>
				<path class="st6" d="M301.7,133v-4c0.2-0.5,0.4-0.8,0.5-0.8c-0.1,0-0.2-0.3-0.5-0.9v-4h2.6v3c0,0.2,0.1,0.3,0.2,0.5
					c0.1,0.1,0.3,0.2,0.5,0.2h4c0.2,0,0.4-0.1,0.5-0.2c0.1-0.1,0.2-0.3,0.2-0.5v-3h2.6v4c-0.2,0.5-0.4,0.8-0.5,0.9
					c0.1,0,0.3,0.3,0.5,0.9v4h-2.6v-3c0-0.2-0.1-0.3-0.2-0.4c-0.1-0.1-0.3-0.2-0.5-0.2h-4c-0.2,0-0.4,0.1-0.5,0.2
					c-0.1,0.1-0.2,0.3-0.2,0.4v3H301.7z"/>
			</g>
			<g>
				<path class="st6" d="M313.8,133v-9.7h8.4c0.6,0,1.2,0.2,1.6,0.6c0.5,0.4,0.7,0.9,0.7,1.5v1.8c0,0.6-0.2,1.1-0.7,1.5
					c-0.5,0.4-1,0.6-1.6,0.6h-5c-0.2,0-0.4,0.1-0.5,0.2c-0.1,0.1-0.2,0.3-0.2,0.4v3H313.8z M321.2,126.9c0.2,0,0.4-0.1,0.5-0.2
					c0.1-0.1,0.2-0.3,0.2-0.5c0-0.2-0.1-0.3-0.2-0.4c-0.1-0.1-0.3-0.2-0.5-0.2h-4c-0.2,0-0.4,0.1-0.5,0.2c-0.1,0.1-0.2,0.3-0.2,0.4
					c0,0.2,0.1,0.3,0.2,0.5c0.1,0.1,0.3,0.2,0.5,0.2H321.2z"/>
			</g>
			<g>
				<path class="st6" d="M328.2,133c-0.7,0-1.2-0.2-1.7-0.6c-0.4-0.4-0.7-0.9-0.7-1.5v-5.5c0-0.6,0.2-1.1,0.7-1.5
					c0.5-0.4,1-0.6,1.7-0.6h6c0.6,0,1.2,0.2,1.6,0.6c0.5,0.4,0.7,0.9,0.7,1.5v5.5c0,0.6-0.2,1.1-0.7,1.5c-0.5,0.4-1,0.6-1.6,0.6
					H328.2z M333.2,130.6c0.2,0,0.4-0.1,0.5-0.2c0.1-0.1,0.2-0.3,0.2-0.5v-3.7c0-0.2-0.1-0.3-0.2-0.4c-0.1-0.1-0.3-0.2-0.5-0.2h-4
					c-0.2,0-0.4,0.1-0.5,0.2c-0.1,0.1-0.2,0.3-0.2,0.4v3.7c0,0.2,0.1,0.3,0.2,0.5c0.1,0.1,0.3,0.2,0.5,0.2H333.2z"/>
			</g>
			<g>
				<path class="st6" d="M337.9,133v-9.7h8.4c0.6,0,1.2,0.2,1.6,0.6c0.5,0.4,0.7,0.9,0.7,1.5v1.9c0,0.5-0.3,0.8-0.7,0.9
					c0.4,0,0.6,0.3,0.7,0.9v4H346v-3c0-0.2-0.1-0.3-0.2-0.4c-0.1-0.1-0.3-0.2-0.5-0.2h-4c-0.2,0-0.4,0.1-0.5,0.2
					c-0.1,0.1-0.2,0.3-0.2,0.4v3H337.9z M345.3,126.9c0.2,0,0.4-0.1,0.5-0.2c0.1-0.1,0.2-0.3,0.2-0.5c0-0.2-0.1-0.3-0.2-0.4
					c-0.1-0.1-0.3-0.2-0.5-0.2h-4c-0.2,0-0.4,0.1-0.5,0.2c-0.1,0.1-0.2,0.3-0.2,0.4c0,0.2,0.1,0.3,0.2,0.5c0.1,0.1,0.3,0.2,0.5,0.2
					H345.3z"/>
			</g>
			<g>
				<path class="st6" d="M354,133v-6.7c0-0.2-0.1-0.3-0.2-0.4c-0.1-0.1-0.3-0.2-0.5-0.2H350v-2.4h10.7v2.4h-3.3
					c-0.2,0-0.4,0.1-0.5,0.2c-0.1,0.1-0.2,0.3-0.2,0.4v6.7H354z"/>
			</g>
		</g>
	</g>
</g>
<g id="controls-zoom">
	<g id="zoom-in">
		<g id="g12011" transform="matrix(2.9042238,0,0,2.9042238,-597.29495,-994.37335)">
			<g id="path12001">
				<g>
					<path class="st6" d="M363.5,403.9c0,5.4-4.4,9.8-9.8,9.8c-5.4,0-9.8-4.4-9.8-9.8s4.4-9.8,9.8-9.8
						C359.2,394.1,363.5,398.5,363.5,403.9z"/>
				</g>
			</g>
		</g>
		<g id="zoom">
			<g>
				<path class="st3" d="M429.6,145c-18.5,0-33.4,15-33.4,33.4c0,7.7,2.6,14.9,7,20.5l-27.9,27.9c-0.3,0.3-0.3,0.9,0,1.2l4.7,4.7
					c0.3,0.3,0.9,0.3,1.2,0l27.9-27.9c5.7,4.4,12.8,7,20.5,7c18.5,0,33.4-15,33.4-33.4S448,145,429.6,145z M447.3,196.2
					c-4.7,4.7-11,7.3-17.7,7.3s-13-2.6-17.7-7.3c-4.7-4.7-7.3-11-7.3-17.7c0-6.7,2.6-13,7.3-17.7c4.7-4.7,11-7.3,17.7-7.3
					s13,2.6,17.7,7.3c4.7,4.7,7.3,11,7.3,17.7C454.6,185.1,452,191.5,447.3,196.2z"/>
			</g>
		</g>
		<g>
			<g>
				<path d="M425.9,182.3c0-0.2-0.1-0.3-0.3-0.3h-8.4c-0.3,0-0.6-0.2-0.6-0.6v-5.5c0-0.3,0.2-0.6,0.6-0.6h8.4c0.2,0,0.3-0.1,0.3-0.3
					v-8.5c0-0.3,0.2-0.6,0.6-0.6h5.7c0.3,0,0.6,0.2,0.6,0.6v8.5c0,0.2,0.1,0.3,0.3,0.3h8.4c0.3,0,0.6,0.2,0.6,0.6v5.5
					c0,0.3-0.2,0.6-0.6,0.6H433c-0.2,0-0.3,0.1-0.3,0.3v8.5c0,0.3-0.2,0.6-0.6,0.6h-5.7c-0.3,0-0.6-0.2-0.6-0.6V182.3z"/>
			</g>
		</g>
	</g>
	<g id="zoom-out">
		<g id="g12007" transform="matrix(2.9042238,0,0,2.9042238,-597.29495,-994.37335)">
			<g id="path12005">
				<g>
					<path class="st6" d="M390.7,403.9c0,5.4-4.4,9.8-9.8,9.8c-5.4,0-9.8-4.4-9.8-9.8s4.4-9.8,9.8-9.8
						C386.3,394.1,390.7,398.5,390.7,403.9z"/>
				</g>
			</g>
		</g>
		<g id="zoom_1_">
			<g>
				<path class="st3" d="M509.6,145c-18.5,0-33.4,15-33.4,33.4c0,7.7,2.6,14.9,7,20.5l-27.9,27.9c-0.3,0.3-0.3,0.9,0,1.2l4.7,4.7
					c0.3,0.3,0.9,0.3,1.2,0l27.9-27.9c5.7,4.4,12.8,7,20.5,7c18.5,0,33.4-15,33.4-33.4S528,145,509.6,145z M527.3,196.2
					c-4.7,4.7-11,7.3-17.7,7.3c-6.7,0-13-2.6-17.7-7.3c-4.7-4.7-7.3-11-7.3-17.7c0-6.7,2.6-13,7.3-17.7c4.7-4.7,11-7.3,17.7-7.3
					c6.7,0,13,2.6,17.7,7.3c4.7,4.7,7.3,11,7.3,17.7C534.6,185.1,532,191.5,527.3,196.2z"/>
			</g>
		</g>
		<g>
			<g>
				<path d="M501.1,181.1v-5.7c0-0.3,0.2-0.6,0.6-0.6h16.1c0.3,0,0.6,0.2,0.6,0.6v5.7c0,0.3-0.2,0.6-0.6,0.6h-16.1
					C501.3,181.6,501.1,181.4,501.1,181.1z"/>
			</g>
		</g>
	</g>
</g>
<g id="controls-pan">
	<g id="pan-left_1_">
		<g>
			<path class="st1" d="M85,122.6v29H48.2c-0.9,0-1.5-0.7-1.5-1.6v-26c0-0.9,0.7-1.5,1.5-1.5H85z"/>
		</g>
		<g id="path2950_1_">
			<path class="st3" d="M61.2,126.3l-5.5,5.5l-5.5,5.5l5.5,5.5l5.5,5.5v-3.3h11v-15.3h-11V126.3z"/>
		</g>
	</g>
	<g id="pan-right_1_">
		<g>
			<path class="st1" d="M152.3,124.1v26c0,0.8-0.7,1.6-1.5,1.6H114v-29h36.8C151.7,122.6,152.3,123.2,152.3,124.1z"/>
		</g>
		<g id="path3727_1_">
			<path class="st3" d="M137.7,126.3l5.5,5.5l5.5,5.5l-5.5,5.5l-5.5,5.5v-3.3h-11v-15.3h11V126.3z"/>
		</g>
	</g>
	<g id="pan-up_1_">
		<g>
			<path class="st1" d="M114,85.7v36.8H85V85.7c0-0.8,0.7-1.5,1.5-1.5h26C113.3,84.2,114,84.9,114,85.7z"/>
		</g>
		<g id="path3729_1_">
			<path class="st3" d="M110.3,98.6l-5.5-5.5l-5.5-5.5l-5.5,5.5l-5.5,5.5h3.3v11H107v-11H110.3z"/>
		</g>
	</g>
	<g id="pan-down_1_">
		<g>
			<path class="st1" d="M114,151.6v36.8c0,0.9-0.7,1.6-1.5,1.6h-26c-0.8,0-1.5-0.7-1.5-1.6v-36.8H114z"/>
		</g>
		<g id="path3731_1_">
			<path class="st3" d="M110.3,176.3l-5.5,5.5l-5.5,5.5l-5.5-5.5l-5.5-5.5h3.3v-11H107v11H110.3z"/>
		</g>
	</g>
</g>
</svg>
