<?xml version="1.0" encoding="utf-8"?>
<!-- Generator: Adobe Illustrator 22.0.1, SVG Export Plug-In . SVG Version: 6.00 Build 0)  -->
<svg version="1.1" xmlns="http://www.w3.org/2000/svg" xmlns:xlink="http://www.w3.org/1999/xlink" x="0px" y="0px" width="1366px"
	 height="768px" viewBox="0 0 1366 768" style="enable-background:new 0 0 1366 768;" xml:space="preserve">
<style type="text/css">
	.st0{fill:#1A1A1A;}
	.st1{fill:#808080;}
	.st2{fill:#DCDCDC;}
	.st3{fill:#DDDDDD;}
	.st4{fill:#FE0016;}
	.st5{fill:#FFFFFF;}
	.st6{fill:#FF0000;}
</style>
<g id="background">
	<g id="rect11983">
		<rect x="394" y="481.6" class="st0" width="581.8" height="195.3"/>
	</g>
	<g id="rect12203">
		<path class="st1" d="M584,474.7h153.3c5.4,0,9.7,4.3,9.7,9.7V495c0,5.4-4.3,9.7-9.7,9.7H584c-5.4,0-9.7-4.3-9.7-9.7v-10.6
			C574.3,479,578.6,474.7,584,474.7z"/>
	</g>
	<g id="rect13178">
		<path class="st1" d="M584,657.7h153.3c5.4,0,9.7,4.3,9.7,9.7V678c0,5.4-4.3,9.7-9.7,9.7H584c-5.4,0-9.7-4.3-9.7-9.7v-10.6
			C574.3,662,578.6,657.7,584,657.7z"/>
	</g>
	<g id="rect11976">
		<path class="st2" d="M386.2,439.6c-4.5,0-8.2,3.6-8.2,8.2v235.6c0,4.5,3.6,8.2,8.2,8.2H982c4.5,0,8-3.6,8-8.2V447.8
			c0-4.5-3.4-8.2-8-8.2H386.2L386.2,439.6z M393.9,481.6h582v195.3h-582V481.6L393.9,481.6z"/>
	</g>
	<g id="rect11986">
		<path class="st1" d="M584,513.3h153.3c5.4,0,9.7,4.3,9.7,9.7v10.6c0,5.4-4.3,9.7-9.7,9.7H584c-5.4,0-9.7-4.3-9.7-9.7V523
			C574.3,517.6,578.6,513.3,584,513.3z"/>
	</g>
	<g id="rect12205">
		<path class="st1" d="M584,551.9h153.3c5.4,0,9.7,4.3,9.7,9.7v10.6c0,5.4-4.3,9.7-9.7,9.7H584c-5.4,0-9.7-4.3-9.7-9.7v-10.6
			C574.3,556.3,578.6,551.9,584,551.9z"/>
	</g>
	<g id="rect12199">
		<path class="st3" d="M585.1,590.1h151.1c6,0,10.8,4.8,10.8,10.8v35.3c0,6-4.8,10.8-10.8,10.8H585.1c-6,0-10.8-4.8-10.8-10.8v-35.3
			C574.3,594.9,579.1,590.1,585.1,590.1z"/>
	</g>
	<g id="rect12207">
		<path class="st1" d="M731.1,642.9H590.2c-5.3,0-9.6-4.3-9.6-9.6v-29c0-5.3,4.3-9.6,9.6-9.6h140.9c5.3,0,9.6,4.3,9.6,9.6v29
			C740.7,638.6,736.4,642.9,731.1,642.9z M590.2,596.2c-4.5,0-8.1,3.6-8.1,8.1v29c0,4.5,3.6,8.1,8.1,8.1h140.9
			c4.5,0,8.1-3.6,8.1-8.1v-29c0-4.5-3.6-8.1-8.1-8.1H590.2z"/>
	</g>
	<g>
		<g>
			<path class="st4" d="M774.7,524v-17.3h8.1c2.5,0,4.6,0.8,6.4,2.5c1.8,1.7,2.6,3.7,2.6,6.1s-0.9,4.4-2.6,6.1
				c-1.8,1.7-3.9,2.5-6.4,2.5H774.7z M780.1,509.5v11.7h2.7c1,0,1.9-0.6,2.6-1.7s1.1-2.5,1.1-4.2s-0.4-3-1.1-4.2
				c-0.7-1.1-1.6-1.7-2.6-1.7H780.1z"/>
		</g>
		<g>
			<path class="st4" d="M793.2,506.7h5.4l7.4,12.1v-12.1h5.3V524H806l-7.5-12.1V524h-5.4V506.7z"/>
		</g>
		<g>
			<path class="st4" d="M819.4,520.1l-1.3,3.9h-5.4l6.3-17.3h5.4l6.3,17.3h-5.4l-1.3-3.9H819.4z M823.3,517.3l-1.5-4.7l-1.5,4.7
				H823.3z"/>
		</g>
		<g>
			<path class="st4" d="M784.2,548.4l-4.2-6.8v12.1h-5.4v-17.3h5.4l4.1,6.7l4.1-6.7h5.4v17.3h-5.4v-12.1L784.2,548.4z"/>
		</g>
		<g>
			<path class="st4" d="M795.2,535.7h5.4v3.6h-5.4V535.7z M795.2,541.7h5.4v11.9h-5.4V541.7z"/>
		</g>
		<g>
			<path class="st4" d="M811.6,549.2h5.2c-0.1,0.3-0.2,0.6-0.3,0.8c-0.4,0.8-0.9,1.5-1.6,2c-0.7,0.6-1.5,1-2.4,1.4s-1.9,0.5-2.9,0.5
				c-1,0-2-0.2-2.9-0.5s-1.7-0.8-2.4-1.4c-0.7-0.6-1.2-1.2-1.6-2c-0.4-0.8-0.6-1.6-0.6-2.5c0-0.9,0.2-1.7,0.6-2.5
				c0.4-0.8,0.9-1.4,1.6-2c0.7-0.6,1.5-1,2.4-1.4c0.9-0.3,1.9-0.5,2.9-0.5c1,0,2,0.2,2.9,0.5c0.9,0.3,1.7,0.8,2.4,1.4
				c0.7,0.6,1.2,1.2,1.6,2c0.1,0.2,0.2,0.5,0.3,0.7h-5.1v-0.6c0-0.9-0.2-1.6-0.7-2c-0.4-0.4-0.9-0.6-1.4-0.6c-0.5,0-1,0.2-1.4,0.6
				s-0.7,1-0.7,2v4.8c0,0.9,0.2,1.5,0.7,1.9c0.4,0.4,0.9,0.6,1.4,0.6c0.5,0,1-0.2,1.4-0.6c0.4-0.4,0.7-1.1,0.7-1.9V549.2z"/>
		</g>
		<g>
			<path class="st4" d="M828,544.3c-0.5-0.5-1.1-0.7-1.8-0.7c-0.7,0-1.3,0.2-1.8,0.7c-0.5,0.5-0.7,1-0.7,1.5v7.9h-5.4v-12h5.4v1.2
				c0.5-0.5,1.2-0.9,1.9-1.2c0.7-0.3,1.6-0.5,2.4-0.5h0.2c0.5,0,1,0.1,1.6,0.2c0.7,0.2,1.4,0.5,2,1c0.4,0.3,0.7,0.6,1.1,1l-4.2,2
				C828.5,545,828.3,544.6,828,544.3z"/>
		</g>
		<g>
			<path class="st4" d="M844.6,541.7c0.9,0.3,1.7,0.8,2.4,1.4c0.7,0.6,1.2,1.2,1.6,2c0.4,0.8,0.6,1.6,0.6,2.5c0,0.9-0.2,1.7-0.6,2.5
				c-0.4,0.8-0.9,1.4-1.6,2c-0.7,0.6-1.5,1-2.4,1.4s-1.9,0.5-2.9,0.5c-1,0-2-0.2-2.9-0.5c-0.9-0.3-1.7-0.8-2.4-1.4
				c-0.7-0.6-1.2-1.2-1.6-2c-0.4-0.8-0.6-1.6-0.6-2.5c0-0.9,0.2-1.7,0.6-2.5c0.4-0.8,0.9-1.4,1.6-2c0.7-0.6,1.5-1,2.4-1.4
				c0.9-0.3,1.9-0.5,2.9-0.5C842.7,541.2,843.7,541.3,844.6,541.7z M843.8,545.1c0-0.9-0.2-1.6-0.7-2s-0.9-0.6-1.4-0.6
				c-0.5,0-1,0.2-1.4,0.6s-0.7,1-0.7,2v4.8c0,0.9,0.2,1.5,0.7,1.9c0.4,0.4,0.9,0.6,1.4,0.6c0.5,0,1-0.2,1.4-0.6
				c0.4-0.4,0.7-1.1,0.7-1.9V545.1z"/>
		</g>
		<g>
			<path class="st4" d="M859.9,544.7c0-1.4-0.7-2.1-2.1-2.1c-1.4,0-2.1,0.6-2.1,1.7c0,1.1,1.6,1.8,4.8,2.1c3.2,0.3,4.8,1.5,4.8,3.7
				c0,2.3-2.4,3.4-7.2,3.4c-4.8,0-7.3-1.4-7.4-4.2h5.1c0,1.9,0.7,2.8,2.1,2.8c1.4,0,2.1-0.6,2.1-1.8c0-1.3-1.6-2.1-4.7-2.3
				s-4.7-1.5-4.7-3.6s2.4-3.2,7.3-3.2c4.1,0,6.3,1.1,6.6,3.4H859.9z"/>
		</g>
		<g>
			<path class="st4" d="M876.3,549.2h5.2c-0.1,0.3-0.2,0.6-0.3,0.8c-0.4,0.8-0.9,1.5-1.6,2c-0.7,0.6-1.5,1-2.4,1.4s-1.9,0.5-2.9,0.5
				c-1,0-2-0.2-2.9-0.5s-1.7-0.8-2.4-1.4c-0.7-0.6-1.2-1.2-1.6-2c-0.4-0.8-0.6-1.6-0.6-2.5c0-0.9,0.2-1.7,0.6-2.5
				c0.4-0.8,0.9-1.4,1.6-2c0.7-0.6,1.5-1,2.4-1.4c0.9-0.3,1.9-0.5,2.9-0.5c1,0,2,0.2,2.9,0.5c0.9,0.3,1.7,0.8,2.4,1.4
				c0.7,0.6,1.2,1.2,1.6,2c0.1,0.2,0.2,0.5,0.3,0.7h-5.1v-0.6c0-0.9-0.2-1.6-0.7-2c-0.4-0.4-0.9-0.6-1.4-0.6c-0.5,0-1,0.2-1.4,0.6
				s-0.7,1-0.7,2v4.8c0,0.9,0.2,1.5,0.7,1.9c0.4,0.4,0.9,0.6,1.4,0.6c0.5,0,1-0.2,1.4-0.6c0.4-0.4,0.7-1.1,0.7-1.9V549.2z"/>
		</g>
		<g>
			<path class="st4" d="M893.3,541.7c0.9,0.3,1.7,0.8,2.4,1.4c0.7,0.6,1.2,1.2,1.6,2c0.4,0.8,0.6,1.6,0.6,2.5c0,0.9-0.2,1.7-0.6,2.5
				c-0.4,0.8-0.9,1.4-1.6,2c-0.7,0.6-1.5,1-2.4,1.4s-1.9,0.5-2.9,0.5c-1,0-2-0.2-2.9-0.5c-0.9-0.3-1.7-0.8-2.4-1.4
				c-0.7-0.6-1.2-1.2-1.6-2c-0.4-0.8-0.6-1.6-0.6-2.5c0-0.9,0.2-1.7,0.6-2.5c0.4-0.8,0.9-1.4,1.6-2c0.7-0.6,1.5-1,2.4-1.4
				c0.9-0.3,1.9-0.5,2.9-0.5C891.5,541.2,892.4,541.3,893.3,541.7z M892.5,545.1c0-0.9-0.2-1.6-0.7-2s-0.9-0.6-1.4-0.6
				c-0.5,0-1,0.2-1.4,0.6s-0.7,1-0.7,2v4.8c0,0.9,0.2,1.5,0.7,1.9c0.4,0.4,0.9,0.6,1.4,0.6c0.5,0,1-0.2,1.4-0.6
				c0.4-0.4,0.7-1.1,0.7-1.9V545.1z"/>
		</g>
		<g>
			<path class="st4" d="M904.3,541.3v0.9c0.4-0.2,0.9-0.5,1.4-0.7c0.5-0.2,1-0.3,1.7-0.4c0.2,0,0.5,0,0.7,0c0.7,0,1.4,0.1,2.1,0.4
				c0.9,0.4,1.6,0.9,2.2,1.5c0.6,0.6,1.1,1.3,1.4,2.1c0.4,0.8,0.5,1.6,0.5,2.4c0,2.1-0.6,3.7-1.9,4.8c-1.3,1.1-2.7,1.7-4.2,1.7
				c-1.5,0-2.8-0.3-3.9-1v5.3h-5.4v-16.9H904.3z M904.3,549.7c0,0.9,0.2,1.6,0.7,1.9c0.5,0.3,0.9,0.5,1.4,0.5c0.4,0,0.9-0.2,1.4-0.5
				c0.5-0.3,0.7-0.9,0.7-1.9v-4.3c0-0.9-0.2-1.5-0.7-1.8c-0.5-0.3-1-0.5-1.4-0.5c-0.4,0-0.9,0.2-1.4,0.5c-0.5,0.3-0.7,0.9-0.7,1.8
				V549.7z"/>
		</g>
		<g>
			<path class="st4" d="M930,549.2c-0.2,0.7-0.6,1.3-1,1.8c-0.5,0.6-1,1.1-1.6,1.5c-0.6,0.4-1.3,0.7-2.1,0.9s-1.6,0.3-2.4,0.3
				c-1,0-2-0.2-2.9-0.5c-0.9-0.3-1.7-0.8-2.4-1.3c-0.7-0.6-1.2-1.3-1.6-2s-0.6-1.6-0.6-2.4c0-0.9,0.2-1.7,0.6-2.4s0.9-1.4,1.6-2
				c0.7-0.6,1.5-1,2.4-1.3c0.9-0.3,1.9-0.5,2.9-0.5c1,0,2,0.2,2.9,0.5c0.9,0.3,1.7,0.8,2.4,1.4c0.7,0.6,1.2,1.3,1.6,2
				c0.4,0.8,0.6,1.6,0.6,2.4h-9.6v2.3c0,1,0.3,1.7,0.8,2s1,0.5,1.4,0.5c0.4,0,0.8-0.2,1.3-0.5c0.5-0.3,0.8-1,0.8-2v-0.7H930z
				 M925,545.8c0-0.5,0-0.9-0.1-1.3s-0.1-0.7-0.3-0.9c-0.2-0.3-0.5-0.6-0.8-0.8c-0.3-0.2-0.6-0.3-1-0.3c-0.3,0-0.7,0.1-1,0.3
				s-0.6,0.4-0.8,0.8c-0.2,0.3-0.3,0.6-0.3,0.9s-0.1,0.8-0.1,1.3H925z"/>
		</g>
	</g>
	<g id="rect2235">
		<path d="M463.5,519.6c-2.7,0-4.7,2.2-4.7,4.9v33.7h-33.7c-2.7,0-4.9,2.2-4.9,4.9v27.1c0,2.7,2.2,4.9,4.9,4.9h33.7V629
			c0,2.7,2,4.7,4.7,4.7h27.3c2.7,0,4.7-2,4.7-4.7v-33.7h33.7c2.7,0,4.9-2.2,4.9-4.9v-27.1c0-2.7-2.2-4.9-4.9-4.9h-33.7v-33.7
			c0-2.7-2-4.9-4.7-4.9H463.5z"/>
	</g>
	<g id="bg">
		<path d="M490.7,576.7c0,7.3-5.9,13.1-13.1,13.2c-7.3,0-13.1-5.9-13.2-13.1c0,0,0,0,0,0c0-7.3,5.9-13.1,13.1-13.2
			C484.8,563.6,490.6,569.4,490.7,576.7C490.7,576.7,490.7,576.7,490.7,576.7z"/>
		<path class="st5" d="M477.5,590.7c-7.7,0-14-6.3-14-14c0-7.7,6.3-14,14-14c0,0,0,0,0,0c3.7,0,7.2,1.5,9.9,4.1
			c2.6,2.6,4.1,6.1,4.1,9.9v0C491.5,584.4,485.2,590.7,477.5,590.7C477.5,590.7,477.5,590.7,477.5,590.7z M477.5,564.4
			C477.5,564.4,477.5,564.4,477.5,564.4c-6.8,0-12.3,5.5-12.3,12.3c0,6.8,5.5,12.3,12.3,12.3c0,0,0,0,0,0c6.8,0,12.3-5.5,12.3-12.3
			v0c0-3.3-1.3-6.4-3.6-8.7C483.9,565.7,480.8,564.4,477.5,564.4z"/>
	</g>
</g>
<g id="controls-other">
	<g id="reset_1_">
		<g id="rect4247_1_">
			<g>
				<path d="M603.7,610h29.4c5.3,0,9.6,4.3,9.6,9.6l0,0c0,5.3-4.3,9.6-9.6,9.6h-29.4c-5.3,0-9.6-4.3-9.6-9.6l0,0
					C594.1,614.3,598.4,610,603.7,610z"/>
			</g>
		</g>
		<g id="rect3789_1_">
			<g>
				<path class="st0" d="M606.2,611.9h24.4c5.3,0,9.6,3.4,9.6,7.7l0,0c0,4.3-4.3,7.7-9.6,7.7h-24.4c-5.3,0-9.6-3.4-9.6-7.7l0,0
					C596.6,615.3,600.9,611.9,606.2,611.9z"/>
			</g>
		</g>
		<g>
			<g>
				<path class="st6" d="M587.7,572.6v-9.7h8.4c0.6,0,1.2,0.2,1.6,0.6c0.5,0.4,0.7,0.9,0.7,1.5v1.9c0,0.5-0.3,0.8-0.7,0.9
					c0.4,0,0.6,0.3,0.7,0.9v4h-2.6v-3c0-0.2-0.1-0.3-0.2-0.4c-0.1-0.1-0.3-0.2-0.5-0.2h-4c-0.2,0-0.4,0.1-0.5,0.2
					c-0.1,0.1-0.2,0.3-0.2,0.4v3H587.7z M595,566.6c0.2,0,0.4-0.1,0.5-0.2c0.1-0.1,0.2-0.3,0.2-0.5c0-0.2-0.1-0.3-0.2-0.4
					c-0.1-0.1-0.3-0.2-0.5-0.2h-4c-0.2,0-0.4,0.1-0.5,0.2c-0.1,0.1-0.2,0.3-0.2,0.4c0,0.2,0.1,0.3,0.2,0.5c0.1,0.1,0.3,0.2,0.5,0.2
					H595z"/>
			</g>
			<g>
				<path class="st6" d="M602.1,572.6c-0.7,0-1.2-0.2-1.7-0.6c-0.4-0.4-0.7-0.9-0.7-1.5v-7.6h10.7v2.4h-7.4c-0.2,0-0.4,0.1-0.5,0.2
					c-0.1,0.1-0.2,0.3-0.2,0.4c0,0.2,0.1,0.3,0.2,0.5c0.1,0.1,0.3,0.2,0.5,0.2h7.4v2.4h-7.4c-0.2,0-0.4,0.1-0.5,0.2
					c-0.1,0.1-0.2,0.3-0.2,0.4c0,0.2,0.1,0.3,0.2,0.5c0.1,0.1,0.3,0.2,0.5,0.2h7.4v2.4H602.1z"/>
			</g>
			<g>
				<path class="st6" d="M611.8,572.6v-2.4h7.4c0.2,0,0.4-0.1,0.5-0.2c0.1-0.1,0.2-0.3,0.2-0.5c0-0.2-0.1-0.3-0.2-0.4
					c-0.1-0.1-0.3-0.2-0.5-0.2h-5c-0.7,0-1.2-0.2-1.7-0.6c-0.4-0.4-0.7-0.9-0.7-1.5V565c0-0.6,0.2-1.1,0.7-1.5
					c0.5-0.4,1-0.6,1.7-0.6h8.4v2.4h-7.4c-0.2,0-0.4,0.1-0.5,0.2c-0.1,0.1-0.2,0.3-0.2,0.4c0,0.2,0.1,0.3,0.2,0.5
					c0.1,0.1,0.3,0.2,0.5,0.2h5c0.6,0,1.2,0.2,1.6,0.6c0.5,0.4,0.7,0.9,0.7,1.5v1.8c0,0.6-0.2,1.1-0.7,1.5c-0.5,0.4-1,0.6-1.6,0.6
					H611.8z"/>
			</g>
			<g>
				<path class="st6" d="M626.2,572.6c-0.7,0-1.2-0.2-1.7-0.6c-0.4-0.4-0.7-0.9-0.7-1.5v-7.6h10.7v2.4h-7.4c-0.2,0-0.4,0.1-0.5,0.2
					c-0.1,0.1-0.2,0.3-0.2,0.4c0,0.2,0.1,0.3,0.2,0.5c0.1,0.1,0.3,0.2,0.5,0.2h7.4v2.4h-7.4c-0.2,0-0.4,0.1-0.5,0.2
					c-0.1,0.1-0.2,0.3-0.2,0.4c0,0.2,0.1,0.3,0.2,0.5c0.1,0.1,0.3,0.2,0.5,0.2h7.4v2.4H626.2z"/>
			</g>
			<g>
				<path class="st6" d="M640,572.6v-6.7c0-0.2-0.1-0.3-0.2-0.4c-0.1-0.1-0.3-0.2-0.5-0.2h-3.3v-2.4h10.7v2.4h-3.3
					c-0.2,0-0.4,0.1-0.5,0.2c-0.1,0.1-0.2,0.3-0.2,0.4v6.7H640z"/>
			</g>
		</g>
	</g>
	<g id="export_1_">
		<g id="rect5332_1_">
			<g>
				<path d="M687.7,610h29.4c5.3,0,9.6,4.3,9.6,9.6l0,0c0,5.3-4.3,9.6-9.6,9.6h-29.4c-5.3,0-9.6-4.3-9.6-9.6l0,0
					C678.1,614.3,682.4,610,687.7,610z"/>
			</g>
		</g>
		<g id="rect3791_1_">
			<g>
				<path class="st0" d="M690.2,611.9h24.4c5.3,0,9.6,3.4,9.6,7.7l0,0c0,4.3-4.3,7.7-9.6,7.7h-24.4c-5.3,0-9.6-3.4-9.6-7.7l0,0
					C680.6,615.3,684.9,611.9,690.2,611.9z"/>
			</g>
		</g>
		<g>
			<g>
				<path class="st6" d="M670,572.6c-0.7,0-1.2-0.2-1.7-0.6c-0.4-0.4-0.7-0.9-0.7-1.5v-7.6h10.7v2.4H671c-0.2,0-0.4,0.1-0.5,0.2
					c-0.1,0.1-0.2,0.3-0.2,0.4c0,0.2,0.1,0.3,0.2,0.5c0.1,0.1,0.3,0.2,0.5,0.2h7.4v2.4H671c-0.2,0-0.4,0.1-0.5,0.2
					c-0.1,0.1-0.2,0.3-0.2,0.4c0,0.2,0.1,0.3,0.2,0.5c0.1,0.1,0.3,0.2,0.5,0.2h7.4v2.4H670z"/>
			</g>
			<g>
				<path class="st6" d="M679.7,572.6v-4c0.2-0.5,0.4-0.8,0.5-0.8c-0.1,0-0.2-0.3-0.5-0.9v-4h2.6v3c0,0.2,0.1,0.3,0.2,0.5
					c0.1,0.1,0.3,0.2,0.5,0.2h4c0.2,0,0.4-0.1,0.5-0.2c0.1-0.1,0.2-0.3,0.2-0.5v-3h2.6v4c-0.2,0.5-0.4,0.8-0.5,0.9
					c0.1,0,0.3,0.3,0.5,0.9v4h-2.6v-3c0-0.2-0.1-0.3-0.2-0.4c-0.1-0.1-0.3-0.2-0.5-0.2h-4c-0.2,0-0.4,0.1-0.5,0.2
					c-0.1,0.1-0.2,0.3-0.2,0.4v3H679.7z"/>
			</g>
			<g>
				<path class="st6" d="M691.8,572.6v-9.7h8.4c0.6,0,1.2,0.2,1.6,0.6c0.5,0.4,0.7,0.9,0.7,1.5v1.8c0,0.6-0.2,1.1-0.7,1.5
					c-0.5,0.4-1,0.6-1.6,0.6h-5c-0.2,0-0.4,0.1-0.5,0.2c-0.1,0.1-0.2,0.3-0.2,0.4v3H691.8z M699.2,566.6c0.2,0,0.4-0.1,0.5-0.2
					c0.1-0.1,0.2-0.3,0.2-0.5c0-0.2-0.1-0.3-0.2-0.4c-0.1-0.1-0.3-0.2-0.5-0.2h-4c-0.2,0-0.4,0.1-0.5,0.2c-0.1,0.1-0.2,0.3-0.2,0.4
					c0,0.2,0.1,0.3,0.2,0.5c0.1,0.1,0.3,0.2,0.5,0.2H699.2z"/>
			</g>
			<g>
				<path class="st6" d="M706.2,572.6c-0.7,0-1.2-0.2-1.7-0.6c-0.4-0.4-0.7-0.9-0.7-1.5V565c0-0.6,0.2-1.1,0.7-1.5
					c0.5-0.4,1-0.6,1.7-0.6h6c0.6,0,1.2,0.2,1.6,0.6c0.5,0.4,0.7,0.9,0.7,1.5v5.5c0,0.6-0.2,1.1-0.7,1.5c-0.5,0.4-1,0.6-1.6,0.6
					H706.2z M711.2,570.2c0.2,0,0.4-0.1,0.5-0.2c0.1-0.1,0.2-0.3,0.2-0.5v-3.7c0-0.2-0.1-0.3-0.2-0.4c-0.1-0.1-0.3-0.2-0.5-0.2h-4
					c-0.2,0-0.4,0.1-0.5,0.2c-0.1,0.1-0.2,0.3-0.2,0.4v3.7c0,0.2,0.1,0.3,0.2,0.5c0.1,0.1,0.3,0.2,0.5,0.2H711.2z"/>
			</g>
			<g>
				<path class="st6" d="M715.9,572.6v-9.7h8.4c0.6,0,1.2,0.2,1.6,0.6c0.5,0.4,0.7,0.9,0.7,1.5v1.9c0,0.5-0.3,0.8-0.7,0.9
					c0.4,0,0.6,0.3,0.7,0.9v4H724v-3c0-0.2-0.1-0.3-0.2-0.4c-0.1-0.1-0.3-0.2-0.5-0.2h-4c-0.2,0-0.4,0.1-0.5,0.2
					c-0.1,0.1-0.2,0.3-0.2,0.4v3H715.9z M723.3,566.6c0.2,0,0.4-0.1,0.5-0.2c0.1-0.1,0.2-0.3,0.2-0.5c0-0.2-0.1-0.3-0.2-0.4
					c-0.1-0.1-0.3-0.2-0.5-0.2h-4c-0.2,0-0.4,0.1-0.5,0.2c-0.1,0.1-0.2,0.3-0.2,0.4c0,0.2,0.1,0.3,0.2,0.5c0.1,0.1,0.3,0.2,0.5,0.2
					H723.3z"/>
			</g>
			<g>
				<path class="st6" d="M732,572.6v-6.7c0-0.2-0.1-0.3-0.2-0.4c-0.1-0.1-0.3-0.2-0.5-0.2H728v-2.4h10.7v2.4h-3.3
					c-0.2,0-0.4,0.1-0.5,0.2c-0.1,0.1-0.2,0.3-0.2,0.4v6.7H732z"/>
			</g>
		</g>
	</g>
</g>
<g id="controls-zoom">
	<g id="zoom-in">
		<g id="g12011" transform="matrix(2.9042238,0,0,2.9042238,-597.29495,-994.37335)">
			<g id="path12001">
				<g>
					<path class="st6" d="M493.7,555.3c0,5.4-4.4,9.8-9.8,9.8s-9.8-4.4-9.8-9.8s4.4-9.8,9.8-9.8S493.7,549.9,493.7,555.3z"/>
				</g>
			</g>
		</g>
		<g id="zoom">
			<g>
				<path class="st3" d="M807.6,584.6c-18.5,0-33.4,15-33.4,33.4c0,7.7,2.6,14.9,7,20.5l-27.9,27.9c-0.3,0.3-0.3,0.9,0,1.2l4.7,4.7
					c0.3,0.3,0.9,0.3,1.2,0l27.9-27.9c5.7,4.4,12.8,7,20.5,7c18.5,0,33.4-15,33.4-33.4C841,599.6,826,584.6,807.6,584.6z
					 M825.3,635.8c-4.7,4.7-11,7.3-17.7,7.3c-6.7,0-13-2.6-17.7-7.3c-4.7-4.7-7.3-11-7.3-17.7s2.6-13,7.3-17.7
					c4.7-4.7,11-7.3,17.7-7.3c6.7,0,13,2.6,17.7,7.3c4.7,4.7,7.3,11,7.3,17.7S830,631.1,825.3,635.8z"/>
			</g>
		</g>
		<g>
			<g>
				<path d="M803.9,621.9c0-0.2-0.1-0.3-0.3-0.3h-8.4c-0.3,0-0.6-0.2-0.6-0.6v-5.5c0-0.3,0.2-0.6,0.6-0.6h8.4c0.2,0,0.3-0.1,0.3-0.3
					v-8.5c0-0.3,0.2-0.6,0.6-0.6h5.7c0.3,0,0.6,0.2,0.6,0.6v8.5c0,0.2,0.1,0.3,0.3,0.3h8.4c0.3,0,0.6,0.2,0.6,0.6v5.5
					c0,0.3-0.2,0.6-0.6,0.6H811c-0.2,0-0.3,0.1-0.3,0.3v8.5c0,0.3-0.2,0.6-0.6,0.6h-5.7c-0.3,0-0.6-0.2-0.6-0.6V621.9z"/>
			</g>
		</g>
	</g>
	<g id="zoom-out">
		<g id="g12007" transform="matrix(2.9042238,0,0,2.9042238,-597.29495,-994.37335)">
			<g id="path12005">
				<g>
					<path class="st6" d="M520.8,555.3c0,5.4-4.4,9.8-9.8,9.8c-5.4,0-9.8-4.4-9.8-9.8s4.4-9.8,9.8-9.8
						C516.4,545.5,520.8,549.9,520.8,555.3z"/>
				</g>
			</g>
		</g>
		<g id="zoom_1_">
			<g>
				<path class="st3" d="M887.6,584.6c-18.5,0-33.4,15-33.4,33.4c0,7.7,2.6,14.9,7,20.5l-27.9,27.9c-0.3,0.3-0.3,0.9,0,1.2l4.7,4.7
					c0.3,0.3,0.9,0.3,1.2,0l27.9-27.9c5.7,4.4,12.8,7,20.5,7c18.5,0,33.4-15,33.4-33.4C921,599.6,906,584.6,887.6,584.6z
					 M905.3,635.8c-4.7,4.7-11,7.3-17.7,7.3c-6.7,0-13-2.6-17.7-7.3c-4.7-4.7-7.3-11-7.3-17.7s2.6-13,7.3-17.7
					c4.7-4.7,11-7.3,17.7-7.3c6.7,0,13,2.6,17.7,7.3c4.7,4.7,7.3,11,7.3,17.7S910,631.1,905.3,635.8z"/>
			</g>
		</g>
		<g>
			<g>
				<path d="M879.1,620.7V615c0-0.3,0.2-0.6,0.6-0.6h16.1c0.3,0,0.6,0.2,0.6,0.6v5.7c0,0.3-0.2,0.6-0.6,0.6h-16.1
					C879.3,621.3,879.1,621.1,879.1,620.7z"/>
			</g>
		</g>
	</g>
</g>
<g id="controls-pan">
	<g id="pan-left_1_">
		<g>
			<path class="st1" d="M463,562.2v29h-36.8c-0.9,0-1.5-0.7-1.5-1.6v-26c0-0.9,0.7-1.5,1.5-1.5H463z"/>
		</g>
		<g id="path2950_1_">
			<path class="st3" d="M439.2,566l-5.5,5.5l-5.5,5.5l5.5,5.5l5.5,5.5v-3.3h11v-15.3h-11V566z"/>
		</g>
	</g>
	<g id="pan-right_1_">
		<g>
			<path class="st1" d="M530.3,563.7v26c0,0.8-0.7,1.6-1.5,1.6H492v-29h36.8C529.7,562.2,530.3,562.9,530.3,563.7z"/>
		</g>
		<g id="path3727_1_">
			<path class="st3" d="M515.7,566l5.5,5.5l5.5,5.5l-5.5,5.5l-5.5,5.5v-3.3h-11v-15.3h11V566z"/>
		</g>
	</g>
	<g id="pan-up_1_">
		<g>
			<path class="st1" d="M492,525.4v36.8h-29v-36.8c0-0.8,0.7-1.5,1.5-1.5h26C491.3,523.9,492,524.5,492,525.4z"/>
		</g>
		<g id="path3729_1_">
			<path class="st3" d="M488.3,538.3l-5.5-5.5l-5.5-5.5l-5.5,5.5l-5.5,5.5h3.3v11H485v-11H488.3z"/>
		</g>
	</g>
	<g id="pan-down_1_">
		<g>
			<path class="st1" d="M492,591.2V628c0,0.9-0.7,1.6-1.5,1.6h-26c-0.8,0-1.5-0.7-1.5-1.6v-36.8H492z"/>
		</g>
		<g id="path3731_1_">
			<path class="st3" d="M488.3,615.9l-5.5,5.5l-5.5,5.5l-5.5-5.5l-5.5-5.5h3.3v-11H485v11H488.3z"/>
		</g>
	</g>
</g>
</svg>
